<?xml version="1.0" encoding="UTF-8"?>
<svg width="22px" height="22px" viewBox="0 0 22 22" version="1.1" xmlns="http://www.w3.org/2000/svg" xmlns:xlink="http://www.w3.org/1999/xlink">
    <title>icon/面性_通用图标/方向类/对勾</title>
    <g id="全局样式" stroke="none" stroke-width="1" fill="none" fill-rule="evenodd">
        <g id="03_icon-/-图标" transform="translate(-545.000000, -1393.000000)">
            <g id="设计类" transform="translate(352.000000, 1306.000000)">
                <g id="编组" transform="translate(192.000000, 86.000000)">
                    <rect id="矩形" fill="#000000" fill-rule="nonzero" opacity="0" x="0" y="0" width="24" height="24"></rect>
                    <path d="M12,1.5 C6.2015625,1.5 1.5,6.2015625 1.5,12 C1.5,17.7984375 6.2015625,22.5 12,22.5 C17.7984375,22.5 22.5,17.7984375 22.5,12 C22.5,6.2015625 17.7984375,1.5 12,1.5 Z M16.5351562,8.57109375 L11.5992187,15.4148438 C11.3015625,15.8296875 10.6851562,15.8296875 10.3875,15.4148438 L7.46484375,11.3648437 C7.37578125,11.240625 7.46484375,11.0671875 7.6171875,11.0671875 L8.71640625,11.0671875 C8.95546875,11.0671875 9.1828125,11.1820312 9.3234375,11.3789062 L10.9921875,13.6945313 L14.6765625,8.58515625 C14.8171875,8.390625 15.0421875,8.2734375 15.2835937,8.2734375 L16.3828125,8.2734375 C16.5351562,8.2734375 16.6242187,8.446875 16.5351562,8.57109375 Z" id="形状" fill="#242F3D"></path>
                </g>
            </g>
        </g>
    </g>
</svg>