<?xml version="1.0" encoding="UTF-8"?>
<svg width="22px" height="22px" viewBox="0 0 22 22" version="1.1" xmlns="http://www.w3.org/2000/svg" xmlns:xlink="http://www.w3.org/1999/xlink">
    <title>图标/通用图标/报错</title>
    <g id="全局样式" stroke="none" stroke-width="1" fill="none" fill-rule="evenodd">
        <g id="03_icon-/-图标" transform="translate(-976.000000, -1669.000000)">
            <g id="编组" transform="translate(975.000000, 1668.000000)">
                <rect id="矩形" fill="#000000" fill-rule="nonzero" opacity="0" x="0" y="0" width="24" height="24"></rect>
                <path d="M12,1.5 C6.2015625,1.5 1.5,6.2015625 1.5,12 C1.5,17.7984375 6.2015625,22.5 12,22.5 C17.7984375,22.5 22.5,17.7984375 22.5,12 C22.5,6.2015625 17.7984375,1.5 12,1.5 Z M15.8765625,15.9890625 L14.3296875,15.9820313 L12,13.2046875 L9.67265625,15.9796875 L8.1234375,15.9867187 C8.0203125,15.9867187 7.9359375,15.9046875 7.9359375,15.7992187 C7.9359375,15.7546875 7.95234375,15.7125 7.98046875,15.6773437 L11.0296875,12.0445312 L7.98046875,8.4140625 C7.95234375,8.37890625 7.9359375,8.33671875 7.9359375,8.2921875 C7.9359375,8.1890625 8.0203125,8.1046875 8.1234375,8.1046875 L9.67265625,8.11171875 L12,10.8890625 L14.3273438,8.1140625 L15.8742188,8.10703125 C15.9773438,8.10703125 16.0617188,8.1890625 16.0617188,8.29453125 C16.0617188,8.3390625 16.0453125,8.38125 16.0171875,8.41640625 L12.9726563,12.046875 L16.0195312,15.6796875 C16.0476563,15.7148438 16.0640625,15.7570312 16.0640625,15.8015625 C16.0640625,15.9046875 15.9796875,15.9890625 15.8765625,15.9890625 Z" id="形状" fill="#18222D"></path>
            </g>
        </g>
    </g>
</svg>